# xmcd CD database file
# Copyright (C) 1997 Ti Kan
# 
# Track frame offsets:
#     150
#     21622
#     44947
#     65252
#     82035
#     96145
#     119225
#     134945
#     154285
#     182625
#     202340
#     216045
#     231200
#     253427
#     268962
#     289425
# 
# Disc length: 4060 seconds
# 
# Revision: 1
# Processed by: cddbd v1.4b41PL1 Copyright (c) Steve Scherf et al.
# Submitted via: DiscPlay 4.0.3
# 
DISCID=1d0fda10
DTITLE=Clifton Chenier - Live at Montreux
DYEAR=1900
DGENRE=
TTITLE0=Intro and Jambalaya
TTITLE1=You're Fussin' Too Much
TTITLE2=Clifton's Boogie Woogie
TTITLE3=Hey, Tite Fille
TTITLE4=Cher Catin
TTITLE5=Zydeco Sont Pas Sale
TTITLE6=Je Marche le Plancher
TTITLE7=Release Me
TTITLE8=I'm A Hog For You
TTITLE9=Lousiana Two Step
TTITLE10=Black Gal
TTITLE11=Money
TTITLE12=I'm on the Wonder
TTITLE13=Woo Woo
TTITLE14=Hush Hush
TTITLE15=calinda
EXTD=
EXTT0=
EXTT1=
EXTT2=
EXTT3=
EXTT4=
EXTT5=
EXTT6=
EXTT7=
EXTT8=
EXTT9=
EXTT10=
EXTT11=
EXTT12=
EXTT13=
EXTT14=
EXTT15=
PLAYORDER=
